<svg xmlns="http://www.w3.org/2000/svg" width="111.836" height="135.994" viewBox="0 0 111.836 135.994">
  <g id="Layer_x0020_1" transform="translate(1.007 0.001)">
    <path id="Path_1" data-name="Path 1" d="M42.6,71.437C61.4,81.995,55.631,52.912,60.615,41.679c3.518-7.93,7.273-6.938,6.337-19.411C66.366,14.458,63.717,5.4,59.209,2.5c-14.188-9.118-27.6,8.974-31.875,17.117-3.9,7.419-4.675,3.4-9.846,16.608-2.546,6.5-5.174,12.732-7.924,19.461-33.744,82.6,31.9,99.3,40.571,60.1,3.593-16.247-2.839-31.2-7.538-44.351Z" transform="translate(-1 0)" fill="#404040" fill-rule="evenodd"/>
    <path id="Path_2" data-name="Path 2" d="M335.428,450.145c-.548,4.554,6.564,8.316,12.37,8.142,11.341-.341,18.877-11.539,16.982,4.91a58.86,58.86,0,0,0-.34,8.767c1.087,35.273,37.531,46.294,27.689-2.224-1.525-7.514-5.375-23.745-9.062-29.294-1.487,4.074-2.154,7.56-5.268,8.215l-1.341-8.6c-7.36-3.495-12.11,2.1-19.176,8.815-10.755,10.219-14.692,1.012-21.851,1.266Z" transform="translate(-282.985 -370.625)" fill="#404040" fill-rule="evenodd"/>
    <path id="Path_3" data-name="Path 3" d="M426.6,31.213c.9-1.476-.095-2.1.855-3.988,5.62,4.918,4.289,1.595,8.136,3.495-2.286,2.02-4.057,1.75-7.535.906,2,2.716,6.418,6.287,9.171,7.368.282-13.135,2.831-16.17-5.535-24.918C426.309,8.441,418.569,5.02,410.43,3.92c3.272,4.526,5.2,6.306,7.559,13.53.964,2.951,1.645,5.923,2.926,8.265,1.884,3.443,3.056,3.23,5.691,5.5Z" transform="translate(-346.331 -3.311)" fill="#404040" fill-rule="evenodd"/>
    <path id="Path_4" data-name="Path 4" d="M494.518,267.219c1.923-3.856,1.847-.436,5.781-2.627-15.019-5.9-25.9,5.354-12.644,14.3,12.352,8.332,17.419-6.773,15.6-9.6C501.916,267.194,498.351,268.766,494.518,267.219Z" transform="translate(-406.492 -222.004)" fill="#404040" fill-rule="evenodd"/>
  </g>
</svg>
