<svg id="Layer_x0020_1" xmlns="http://www.w3.org/2000/svg" width="22.045" height="29.7" viewBox="0 0 22.045 29.7">
  <g id="_2422836706944" transform="translate(0 0)">
    <path id="Path_679" data-name="Path 679" d="M7.193,22.8l.016.016S7.187,22.8,7.193,22.8ZM2.61,19.492a1.887,1.887,0,0,1,.117-.639,9.257,9.257,0,0,0,1.686,1.158c.117.063.1.041.164.123a6.226,6.226,0,0,0,.335.709,5.277,5.277,0,0,0,2.05,1.838l.174.117a9.384,9.384,0,0,1-2.818-1.069c-.705-.424-1.7-1.329-1.7-2.24Zm14.156.4a.722.722,0,0,1,.136-.1c2.644-1.733,2.36-2.426,2.36-5.646a4.364,4.364,0,0,1,1.2.886c2.391,2.85-2.591,4.764-3.695,4.856ZM4.814,16.3a19.009,19.009,0,0,0,2.841.465A16.531,16.531,0,0,0,12.7,16.3c1.895-.5,4.821-1.86,4.871-4.119a2,2,0,0,1,.7,1.74c0,1.287-1.9,2.328-2.942,2.743a14.406,14.406,0,0,1-9.351.152c-.2-.066-.392-.149-.588-.225-.085-.035-.206-.079-.291-.117L4.808,16.3Zm9.572-4.523.016.016S14.38,11.78,14.387,11.777ZM.927,9.281A2.283,2.283,0,0,1,1.68,7.655c0,1.651,1.74,2.983,3.081,3.53a12.672,12.672,0,0,0,2.521.788,15.642,15.642,0,0,0,6.181.041c.319-.054.582-.158.86-.183-.06.054.016,0-.1.073a1.055,1.055,0,0,1-.111.063l-.781.319C9.844,13.453,4.77,13.333,1.9,11.024A2.709,2.709,0,0,1,.924,9.275ZM2.61,4.814c0-2.154,3.315-3.325,5.137-3.622a15.035,15.035,0,0,1,5.3-.025c1.683.285,3.748.981,4.8,2.331a2.167,2.167,0,0,1-.655,3.141C14.175,8.889,8.952,9.028,5.514,7.649A7.1,7.1,0,0,1,3.692,6.627,2.817,2.817,0,0,1,2.6,4.814ZM0,8.99V12.3a3.547,3.547,0,0,0,1.683,2.553c0,.582,0,1.161,0,1.743a3.788,3.788,0,0,0,.348,1.392,4.264,4.264,0,0,1-.24.573c-.212.658-.108,5.523-.108,6.564a3.194,3.194,0,0,0,1.107,2.2l.332.3a5.222,5.222,0,0,0,.474.338A12.2,12.2,0,0,0,9.92,29.7h.987c2.733,0,6.814-1.082,8.006-3.363.487-.93.348-2.1.348-3.483a5.51,5.51,0,0,0,2.417-2.107,2.415,2.415,0,0,0,.367-1.142V16.3c0-1.423-1.522-2.594-2.654-3.208-.535-.291-.127-.3-.784-1.186A4.062,4.062,0,0,0,18,11.239c-.433-.38-.421-.13-.421-.914a1.98,1.98,0,0,0,.623-.478A3.344,3.344,0,0,0,19.258,7.6V4.7c0-3.1-5-4.7-8.354-4.7A14.089,14.089,0,0,0,5.792.686,6.227,6.227,0,0,0,1.838,3.752a6.491,6.491,0,0,0-.152,2.227c.006.538-.1.493-.418.743A3.435,3.435,0,0,0,0,8.993Z" transform="translate(0 0)" fill="#fff" fill-rule="evenodd"/>
    <path id="Path_680" data-name="Path 680" d="M14.49,9.666c0,1.635,2.657,2.173,3.91,2.357a14.16,14.16,0,0,0,5.45-.3c.949-.282,2.056-.737,2.334-1.667.345-1.148-.908-1.832-1.7-2.142-2.23-.873-7.342-1.009-9.281.557a1.584,1.584,0,0,0-.712,1.2Z" transform="translate(-9.906 -4.968)" fill="#fff" fill-rule="evenodd"/>
  </g>
</svg>
