<svg xmlns="http://www.w3.org/2000/svg" width="26.29" height="26.29" viewBox="0 0 26.29 26.29">
  <g id="Layer_x0020_1" transform="translate(0 0.012)">
    <g id="_2422713038800" transform="translate(0 -0.012)">
      <path id="Path_677" data-name="Path 677" d="M6.521,6.559A6.721,6.721,0,0,0,8.8,11.57a5.458,5.458,0,0,1,.594.484,10.9,10.9,0,0,0-2.821,1.183,13.945,13.945,0,0,0-2.305,1.7A12.79,12.79,0,0,0,1.846,17.9,12.947,12.947,0,0,0,0,24.172v1.35a.892.892,0,0,0,.293.565.665.665,0,0,0,.5.191h.459l11.584-.052a4.342,4.342,0,0,1-2.517-.873,1.677,1.677,0,0,1-.32-.244c-.134-.129-.22-.166-.336-.281s-.132-.181-.255-.31a4.849,4.849,0,0,1-1.143-2.862,4.67,4.67,0,0,1,.489-2.49,4.885,4.885,0,0,1,6.37-2.316,4.413,4.413,0,0,1,1.14.71,4.852,4.852,0,0,1,1.406,5.7A4.134,4.134,0,0,1,16.7,24.7a4.479,4.479,0,0,1-3.3,1.527l11.722.052H25.5a.658.658,0,0,0,.471-.167.874.874,0,0,0,.321-.582V24.273a12.994,12.994,0,0,0-1.813-6.3,13.325,13.325,0,0,0-5.648-5.186,10.482,10.482,0,0,0-1.986-.735l.726-.608A6.735,6.735,0,0,0,19.2,9.074,6.587,6.587,0,1,0,6.52,6.558Z" transform="translate(0 0.012)" fill="#fff" fill-rule="evenodd"/>
      <path id="Path_678" data-name="Path 678" d="M129.293,226.54v.925h-.924c-.372,0-.72.356-.72.924a.847.847,0,0,0,.72.72h.924v.924c0,.372.356.719.924.719a.845.845,0,0,0,.72-.719v-.924h.924c.372,0,.72-.356.72-.925a.846.846,0,0,0-.72-.719h-.924v-.925c0-.372-.356-.72-.924-.72A.845.845,0,0,0,129.293,226.54Z" transform="translate(-116.97 -206.925)" fill="#fff" fill-rule="evenodd"/>
    </g>
  </g>
</svg>
