<svg xmlns="http://www.w3.org/2000/svg" width="26.496" height="26.484" viewBox="0 0 26.496 26.484">
  <g id="Layer_x0020_1" transform="translate(0.01 -0.007)">
    <g id="_2422711469488" transform="translate(-0.01 0.007)">
      <path id="Path_671" data-name="Path 671" d="M166.81,3.929v8.953h8.073V3.929A4.053,4.053,0,0,0,172.489.372,3.876,3.876,0,0,0,169.24.356a4.122,4.122,0,0,0-2.034,1.951,4.024,4.024,0,0,0-.4,1.622Z" transform="translate(-157.598 -0.007)" fill="#fff" fill-rule="evenodd"/>
      <path id="Path_672" data-name="Path 672" d="M-.009,17.632v1.242H7.546c.24,0,.156-.413.155-.673V10.283a5.12,5.12,0,0,1,.983-3.416,5.942,5.942,0,0,0,.362-.517A10.608,10.608,0,0,0,6.32,7.4L5.143,8.14c-.144.1-.221.15-.363.258a12.464,12.464,0,0,0-3.02,3.345A11.714,11.714,0,0,0-.01,17.632Z" transform="translate(0.01 -6)" fill="#fff" fill-rule="evenodd"/>
      <path id="Path_673" data-name="Path 673" d="M317.311,18.9h7.555a12.214,12.214,0,0,0-.909-5.456,12.437,12.437,0,0,0-1.924-3.147,15.018,15.018,0,0,0-1.243-1.293,12.725,12.725,0,0,0-3.083-1.988,8.494,8.494,0,0,0-1.9-.638c.1.189.5.669.69,1.018a5.651,5.651,0,0,1,.5,1.265,14.046,14.046,0,0,1,.161,3.358v6.158c0,.237-.094.724.155.724Z" transform="translate(-298.371 -6.028)" fill="#fff" fill-rule="evenodd"/>
      <path id="Path_674" data-name="Path 674" d="M190.24,382.325V387.4c0,.119.036.155.155.155h5.175c.119,0,.155-.036.155-.155v-5.071c0-.119-.036-.155-.155-.155H190.4C190.276,382.17,190.24,382.206,190.24,382.325Z" transform="translate(-179.735 -361.067)" fill="#fff" fill-rule="evenodd"/>
      <path id="Path_675" data-name="Path 675" d="M50.311,264.4h2.536a2.668,2.668,0,0,0-.167-.662l-1.149-3.922a3.481,3.481,0,0,1-.185-.695H49.69c.008.354.974,3.167.983,3.57l-3.762-3.172a3.926,3.926,0,0,0-.358-.314,3.091,3.091,0,0,0-1.209-.084H44.05c.129.192.177.183.347.326l4.9,4.16a6.925,6.925,0,0,0,1.019.792Z" transform="translate(-41.617 -244.799)" fill="#fff" fill-rule="evenodd"/>
      <path id="Path_676" data-name="Path 676" d="M279.461,262.635c0-.021.145-.406.153-.434l.643-2.2a5.45,5.45,0,0,0,.247-.943h-1.6l-.758,2.605c-.088.306-.737,2.41-.743,2.673h2.484c.137,0,3.057-2.522,3.145-2.6l2.353-1.993a5,5,0,0,0,.763-.686,14.028,14.028,0,0,0-2.472.064l-2.77,2.353c-.12.1-.225.189-.34.282l-.7.591a1.222,1.222,0,0,0-.34.332l-.06-.043Z" transform="translate(-262.082 -244.732)" fill="#fff" fill-rule="evenodd"/>
    </g>
  </g>
</svg>
